<?xml version="1.0" standalone="no"?><!DOCTYPE svg PUBLIC "-//W3C//DTD SVG 1.1//EN" "http://www.w3.org/Graphics/SVG/1.1/DTD/svg11.dtd">
<svg t="1555295905499" class="icon" style="" fill="#ccc" viewBox="0 0 1260 1024" version="1.1" 
  xmlns="http://www.w3.org/2000/svg" p-id="8831" 
  xmlns:xlink="http://www.w3.org/1999/xlink" width="246.09375" height="200">

  <path d="M1159.561846 361.629538v194.008616l44.268308 53.720615-85.543385 77.351385-78.611692-77.351385 47.261538-54.665846V393.609846C834.244923 500.972308 765.479385 535.000615 709.474462 560.836923c-56.004923 25.836308-96.256 25.836308-152.260924 4.096-55.138462-21.661538-307.593846-121.777231-439.296-186.761846-87.433846-43.323077-93.341538-71.286154 1.969231-108.386462 123.825231-48.521846 316.416-126.976 424.487385-169.353846 63.803077-26.781538 98.225231-41.196308 157.223384-11.264 105.156923 45.371077 333.115077 138.24 452.923077 189.833846 104.211692 47.497846 34.500923 63.015385 4.962462 82.628923zM722.313846 641.339077c60.888615-25.836308 143.438769-69.159385 233.865846-109.410462v319.960616s-115.948308 128-321.378461 128c-220.081231 0-338.944-128-338.944-128v-299.323077c69.789538 28.908308 147.298462 54.665846 241.664 87.748923 58.052923 22.685538 131.702154 29.932308 184.792615 1.024z" p-id="8832"></path>
</svg>