<?xml version="1.0" standalone="no"?><!DOCTYPE svg PUBLIC "-//W3C//DTD SVG 1.1//EN" "http://www.w3.org/Graphics/SVG/1.1/DTD/svg11.dtd"><svg t="1560617127796" class="icon" style="" viewBox="0 0 1024 1024" version="1.1" xmlns="http://www.w3.org/2000/svg" p-id="7688" xmlns:xlink="http://www.w3.org/1999/xlink" width="200" height="200"><defs><style type="text/css"></style></defs><path d="M339.2 307.2a32 32 0 0 0-32 32v46.912a32 32 0 0 0 32 32h345.6a32 32 0 0 0 32-32V339.2a32 32 0 0 0-32-32H339.2zM874.56 960H153.664A64 64 0 1 1 64 876.8V151.424A64 64 0 1 1 151.424 64H876.8A64 64 0 1 1 960 153.664v720.896A64 64 0 1 1 874.56 960zM896 879.552V148.736A64.32 64.32 0 0 1 876.8 128H151.424A64.32 64.32 0 0 1 128 151.424V876.8c8.256 4.8 15.36 11.392 20.736 19.2h730.816c4.416-6.4 9.984-12.032 16.448-16.448zM339.2 243.2h345.6a96 96 0 0 1 96 96v46.912a96 96 0 0 1-96 96H339.2a96 96 0 0 1-96-96V339.2a96 96 0 0 1 96-96z m0 298.688h345.6a96 96 0 0 1 96 96v46.912a96 96 0 0 1-96 96H339.2a96 96 0 0 1-96-96v-46.912a96 96 0 0 1 96-96z m0 64a32 32 0 0 0-32 32v46.912a32 32 0 0 0 32 32h345.6a32 32 0 0 0 32-32v-46.912a32 32 0 0 0-32-32H339.2z" p-id="7689"></path></svg>