<?xml version="1.0" standalone="no"?><!DOCTYPE svg PUBLIC "-//W3C//DTD SVG 1.1//EN" "http://www.w3.org/Graphics/SVG/1.1/DTD/svg11.dtd"><svg t="1555295851343" class="icon" style="" viewBox="0 0 1024 1024" version="1.1" xmlns="http://www.w3.org/2000/svg" p-id="7795" xmlns:xlink="http://www.w3.org/1999/xlink" width="200" height="200"><defs><style type="text/css"></style></defs><path d="M92.868923 86.252308v802.658461h802.658462V86.173538H92.790154zM39.305846 0h903.168c21.661538 0 39.227077 17.565538 39.227077 39.305846v903.168a39.305846 39.305846 0 0 1-39.227077 39.227077H39.305846A39.305846 39.305846 0 0 1 0 942.473846V39.305846C0 17.565538 17.565538 0 39.305846 0z" p-id="7796"></path><path d="M490.889846 358.163692c25.6 0 46.473846 20.795077 46.473846 47.655385 0 24.418462-20.873846 45.213538-46.473846 45.213538a46.237538 46.237538 0 0 1-46.473846-45.213538c0-26.781538 20.795077-47.655385 46.473846-47.655385z m0 172.504616c25.6 0 46.473846 20.795077 46.473846 47.576615 0 24.418462-20.873846 45.292308-46.473846 45.292308a46.237538 46.237538 0 0 1-46.473846-45.292308c0-26.781538 20.795077-47.576615 46.473846-47.576615zM238.828308 291.84h92.868923v398.020923H238.828308zM650.082462 291.84h92.868923v398.020923H650.082462z" p-id="7797"></path></svg>