<?xml version="1.0" standalone="no"?><!DOCTYPE svg PUBLIC "-//W3C//DTD SVG 1.1//EN" "http://www.w3.org/Graphics/SVG/1.1/DTD/svg11.dtd"><svg t="1555295844175" class="icon" style="" viewBox="0 0 1024 1024" version="1.1" xmlns="http://www.w3.org/2000/svg" p-id="7686" xmlns:xlink="http://www.w3.org/1999/xlink" width="200" height="200"><defs><style type="text/css"></style></defs><path d="M514.706286 655.652571a146.358857 146.358857 0 1 1 0-292.717714 146.358857 146.358857 0 0 1 0 292.717714zM247.076571 243.931429V42.715429a18.285714 18.285714 0 0 1 18.285715-18.285715h54.857143a18.285714 18.285714 0 0 1 18.358857 18.285715v256.146285a36.571429 36.571429 0 0 1-36.571429 36.571429H48.128a18.285714 18.285714 0 0 1-18.285714-18.285714v-54.857143a18.285714 18.285714 0 0 1 18.285714-18.285715h198.948571z m535.259429 0h198.948571a18.285714 18.285714 0 0 1 18.285715 18.285714v54.930286a18.285714 18.285714 0 0 1-18.285715 18.285714h-253.805714a36.571429 36.571429 0 0 1-36.644571-36.571429V42.715429a18.285714 18.285714 0 0 1 18.285714-18.285715h54.857143a18.285714 18.285714 0 0 1 18.285714 18.285715v201.216z m0 530.651428v201.289143a18.285714 18.285714 0 0 1-18.285714 18.285714h-54.857143a18.285714 18.285714 0 0 1-18.358857-18.285714V719.725714a36.571429 36.571429 0 0 1 36.571428-36.571428h253.878857a18.285714 18.285714 0 0 1 18.285715 18.285714v54.857143a18.285714 18.285714 0 0 1-18.285715 18.285714h-198.948571z m-535.259429 0H48.128a18.285714 18.285714 0 0 1-18.285714-18.285714v-54.857143a18.285714 18.285714 0 0 1 18.285714-18.285714h253.805714a36.571429 36.571429 0 0 1 36.644572 36.571428v256.146286a18.285714 18.285714 0 0 1-18.285715 18.285714h-54.857142a18.285714 18.285714 0 0 1-18.285715-18.285714V774.582857z" p-id="7687"></path></svg>